# xmcd CD database file
#
# Track frame offsets:
#	150
#	10585
#	27855
#	54092
#	73467
#	91022
#	109400
#	130452
#	151412
#	167902
#	192557
#	209295
#	230165
#	244290
#
# Disc length: 3469 seconds
#
# Revision: 2
# Processed by: cddbd v1.5.1PL0 Copyright (c) Steve Scherf et al.
# Submitted via: CDex 1.51
#
DISCID=c50d8b0e
DTITLE=Mike Bloomfield - Rx for the Blues
DYEAR=1900
DGENRE=Blues
TTITLE0=Rx for the Blues
TTITLE1=Wings of an Angel
TTITLE2=Knockin' Myself Out
TTITLE3=Walkin' the Floor
TTITLE4=Hully Gully
TTITLE5=Don't you Lie to Me
TTITLE6=Junko Partner
TTITLE7=Woman Lovin' eachother
TTITLE8=Cherry Red
TTITLE9=You Must Have Jesus
TTITLE10=Spotlight
TTITLE11=I Was Robbed Last Night
TTITLE12=I Found Out
TTITLE13=Never Be Lonely Again
EXTD=
EXTT0=
EXTT1=
EXTT2=
EXTT3=
EXTT4=
EXTT5=
EXTT6=
EXTT7=
EXTT8=
EXTT9=
EXTT10=
EXTT11=
EXTT12=
EXTT13=
PLAYORDER=
